<svg width="73" height="46" viewBox="0 0 73 46" fill="none" xmlns="http://www.w3.org/2000/svg">
<g clip-path="url(#clip0_0_35)">
<path d="M7.66671 21.9047L12.0477 12.0476C12.9191 12.0476 13.7548 12.3938 14.371 13.01C14.9872 13.6261 15.3334 14.4619 15.3334 15.3333V19.7143H21.5324C21.8499 19.7107 22.1644 19.7761 22.4541 19.9062C22.7438 20.0362 23.0018 20.2276 23.2102 20.4673C23.4185 20.7069 23.5723 20.9889 23.6608 21.2939C23.7494 21.5988 23.7706 21.9194 23.7229 22.2333L22.2115 32.0905C22.1323 32.6128 21.8669 33.0889 21.4644 33.431C21.0619 33.7732 20.5493 33.9583 20.021 33.9524H7.66671M7.66671 21.9047V33.9524M7.66671 21.9047H4.38099C3.80004 21.9047 3.24289 22.1355 2.83209 22.5463C2.4213 22.9571 2.19052 23.5143 2.19052 24.0952V31.7619C2.19052 32.3428 2.4213 32.9 2.83209 33.3108C3.24289 33.7216 3.80004 33.9524 4.38099 33.9524H7.66671" stroke="#ACACBE" stroke-width="2.18453" stroke-linecap="round" stroke-linejoin="round"/>
</g>
<g clip-path="url(#clip1_0_35)">
<path d="M64.619 24.0952L60.238 33.9524C59.3666 33.9524 58.5309 33.6062 57.9147 32.99C57.2985 32.3738 56.9523 31.5381 56.9523 30.6667V26.2857H50.7533C50.4357 26.2893 50.1212 26.2238 49.8315 26.0938C49.5418 25.9638 49.2839 25.7723 49.0755 25.5327C48.8672 25.2931 48.7134 25.0111 48.6248 24.7061C48.5363 24.4012 48.5151 24.0806 48.5628 23.7667L50.0742 13.9095C50.1534 13.3872 50.4187 12.9111 50.8213 12.5689C51.2238 12.2268 51.7364 12.0416 52.2647 12.0476H64.619M64.619 24.0952V12.0476M64.619 24.0952H67.5433C68.1631 24.1062 68.7654 23.8892 69.2359 23.4854C69.7063 23.0816 70.0121 22.5191 70.0952 21.9048V14.2381C70.0121 13.6237 69.7063 13.0613 69.2359 12.6575C68.7654 12.2537 68.1631 12.0367 67.5433 12.0476H64.619" stroke="#ACACBE" stroke-width="2.18453" stroke-linecap="round" stroke-linejoin="round"/>
</g>
<defs>
<clipPath id="clip0_0_35">
<rect width="26.2144" height="26.2144" fill="white" transform="translate(0 9.85714) scale(1.00272)"/>
</clipPath>
<clipPath id="clip1_0_35">
<rect width="26.2144" height="26.2144" fill="white" transform="translate(46.0001 9.85714) scale(1.00272)"/>
</clipPath>
</defs>
</svg>
