<svg width="35" height="36" viewBox="0 0 35 36" fill="none" xmlns="http://www.w3.org/2000/svg">
<path d="M32.6927 14.5176C33.0903 13.3234 33.2282 12.0582 33.0973 10.8065C32.9663 9.55479 32.5694 8.34551 31.9332 7.25958C30.9902 5.61706 29.5497 4.31661 27.8196 3.54589C26.0895 2.77518 24.1593 2.57403 22.3074 2.97149C21.4721 2.03016 20.4455 1.27811 19.296 0.765677C18.1465 0.25325 16.9009 -0.00774251 15.6425 0.000174887C13.7491 -0.00439482 11.9032 0.592412 10.3709 1.70456C8.83862 2.81671 7.6991 4.38672 7.11662 6.18826C5.88321 6.44074 4.71796 6.95379 3.69888 7.69308C2.67979 8.43236 1.8304 9.3808 1.20757 10.4749C0.256976 12.113 -0.14879 14.0105 0.0487842 15.894C0.246359 17.7775 1.03706 19.5495 2.30686 20.9546C1.90927 22.1488 1.77134 23.414 1.90231 24.6657C2.03329 25.9174 2.43013 27.1267 3.06629 28.2126C4.00944 29.8551 5.44996 31.1554 7.18004 31.9261C8.9101 32.6969 10.8403 32.8981 12.6921 32.5007C13.5274 33.442 14.5542 34.194 15.7036 34.7065C16.853 35.2189 18.0986 35.4799 19.3571 35.472C21.2514 35.477 23.0983 34.8799 24.6311 33.7671C26.164 32.6542 27.3038 31.083 27.8858 29.2804C29.1191 29.028 30.2844 28.5149 31.3035 27.7756C32.3225 27.0364 33.1719 26.0879 33.7948 24.9937C34.7442 23.3559 35.1491 21.4588 34.9509 19.576C34.7529 17.6933 33.9622 15.9221 32.6927 14.5176ZM19.3599 33.1531C17.8049 33.1553 16.2988 32.6107 15.1047 31.6147C15.1585 31.5853 15.253 31.5335 15.3145 31.4959L22.3774 27.4161C22.5547 27.3153 22.7019 27.169 22.8038 26.9924C22.9059 26.8157 22.959 26.6151 22.9578 26.4113V16.454L25.9431 18.1777C25.9587 18.1855 25.9722 18.1971 25.9824 18.2113C25.9925 18.2256 25.9989 18.2422 26.0011 18.2595V26.5056C25.9989 28.2669 25.2987 29.9555 24.0539 31.2014C22.8091 32.4475 21.1211 33.1493 19.3599 33.1531ZM5.07748 27.0532C4.2986 25.7074 4.01788 24.1306 4.28447 22.5986C4.33691 22.6301 4.42852 22.6861 4.49426 22.7238L11.5571 26.8035C11.7332 26.9064 11.9334 26.9606 12.1373 26.9606C12.3411 26.9606 12.5413 26.9064 12.7173 26.8035L21.3404 21.8245V25.2721C21.3413 25.2896 21.338 25.3073 21.3305 25.3232C21.3231 25.3392 21.3118 25.3531 21.2977 25.3637L14.1579 29.486C12.6307 30.3656 10.8169 30.6034 9.11459 30.1473C7.41225 29.6912 5.96036 28.5784 5.07748 27.0532ZM3.21944 11.6343C3.99494 10.2868 5.21983 9.25505 6.67956 8.71969C6.67956 8.78052 6.67607 8.88827 6.67607 8.96303V17.1224C6.67482 17.3262 6.72788 17.5266 6.82977 17.7032C6.93165 17.8797 7.07869 18.0258 7.25579 18.1266L15.8788 23.105L12.8935 24.8287C12.8788 24.8384 12.8619 24.8443 12.8443 24.8459C12.8268 24.8475 12.809 24.8447 12.7928 24.8378L5.65229 20.712C4.12778 19.829 3.01556 18.3777 2.5595 16.676C2.10344 14.9744 2.34077 13.1613 3.21944 11.6343ZM27.7466 17.342L19.1235 12.363L22.1089 10.64C22.1236 10.6303 22.1405 10.6244 22.1581 10.6228C22.1756 10.6212 22.1933 10.624 22.2095 10.6309L29.3501 14.7532C30.444 15.3852 31.3353 16.3156 31.9196 17.4357C32.5038 18.5559 32.7568 19.8192 32.6491 21.0779C32.5413 22.3367 32.0771 23.5386 31.311 24.5431C30.5448 25.5476 29.5083 26.313 28.3228 26.7497C28.3228 26.6881 28.3228 26.5805 28.3228 26.5056V18.3462C28.3245 18.1428 28.272 17.9425 28.1707 17.7661C28.0694 17.5896 27.9231 17.4433 27.7466 17.342ZM30.7179 12.87C30.6655 12.8378 30.5739 12.7826 30.5081 12.7449L23.4452 8.66515C23.2692 8.56246 23.069 8.50827 22.8651 8.50827C22.6613 8.50827 22.4611 8.56246 22.2851 8.66515L13.662 13.6442V10.1967C13.6611 10.179 13.6644 10.1615 13.6719 10.1455C13.6793 10.1295 13.6906 10.1156 13.7047 10.1051L20.8445 5.98616C21.9383 5.35544 23.1892 5.04925 24.4506 5.1034C25.7121 5.15756 26.932 5.56982 27.9678 6.29195C29.0035 7.01409 29.8122 8.01623 30.2992 9.18118C30.7862 10.3461 30.9315 11.6256 30.7179 12.87ZM12.039 19.0148L9.05296 17.291C9.03735 17.2832 9.02378 17.2717 9.01368 17.2574C9.00357 17.2431 8.99709 17.2265 8.99496 17.2092V8.96303C8.99576 7.70008 9.35634 6.46346 10.0344 5.39795C10.7125 4.33243 11.6801 3.48212 12.8239 2.94653C13.9677 2.41095 15.2404 2.21226 16.493 2.37371C17.7457 2.53516 18.9264 3.05009 19.897 3.8582C19.8432 3.88757 19.7494 3.93932 19.6872 3.97708L12.6243 8.05677C12.447 8.15752 12.2999 8.30365 12.1978 8.48016C12.0959 8.65664 12.0427 8.85714 12.0439 9.06093L12.039 19.0148ZM13.6606 15.5183L17.5012 13.3001L21.3417 15.5169V19.9518L17.5012 22.1686L13.6606 19.9518V15.5183Z" fill="white"/>
</svg>
